<svg width="32" height="32" viewBox="40 44 142 134" fill="none" xmlns="http://www.w3.org/2000/svg">
<rect x="40" y="44" width="142" height="134" fill="black"/>
<path fill-rule="evenodd" clip-rule="evenodd" d="M77.2831 53.196C80.9465 52.431 84.8015 53.9802 88.323 56.5334C91.8809 59.1132 95.5217 63.0061 99.0617 67.7946C102.463 72.3961 105.853 77.9358 109.056 84.1637C114.164 94.0958 123.867 100.961 134.926 102.534C142.001 103.54 148.405 104.981 153.831 106.767C159.358 108.584 164.007 110.803 167.326 113.384C170.613 115.941 172.948 119.149 172.948 122.937C172.948 126.726 170.613 129.934 167.326 132.491C164.007 135.072 159.358 137.29 153.831 139.108C147.227 141.281 139.174 142.943 130.226 143.932C128.32 144.143 126.901 145.792 126.919 147.708C126.972 153.225 126.355 158.007 124.956 161.622C123.572 165.199 121.247 168.039 117.584 168.804C113.92 169.569 110.065 168.02 106.544 165.467C102.986 162.887 99.3457 158.994 95.8058 154.206C91.0717 147.803 84.2585 143.187 76.4943 141.412C73.5029 140.729 70.6997 139.958 68.1178 139.108C62.5911 137.29 57.9414 135.072 54.6227 132.491C51.3353 129.934 49.0001 126.726 49 122.937C49 119.149 51.3354 115.941 54.6227 113.384C57.9413 110.803 62.5912 108.585 68.1178 106.767C70.8057 105.882 72.4142 103.077 71.7262 100.333C69.2869 90.6027 68.0182 81.6676 67.9481 74.2926C67.8956 68.7758 68.5118 63.9939 69.9102 60.379C71.2944 56.8012 73.6197 53.9611 77.2831 53.196ZM103.901 144.83C100.13 144.685 97.6169 148.786 99.8599 151.821C103.219 156.364 106.459 159.753 109.353 161.851C112.282 163.975 114.45 164.5 115.973 164.183C117.495 163.865 119.027 162.567 120.179 159.59C121.316 156.65 121.914 152.46 121.865 147.225C121.851 145.806 120.631 144.717 119.213 144.781C116.516 144.903 113.766 144.966 110.975 144.966C108.584 144.966 106.223 144.92 103.901 144.83ZM110.975 105.803C101.596 105.803 92.7633 106.526 84.9585 107.799C81.8634 108.304 80.0167 111.461 81.0488 114.422C82.4488 118.438 83.9577 122.316 85.5442 126.016C89.1116 134.335 97.1762 139.771 106.226 140.01C107.792 140.051 109.375 140.072 110.975 140.072C116.668 140.072 120.94 135.028 119.838 129.443C118.499 122.655 116.494 115.257 113.818 107.579C113.448 106.517 112.447 105.806 111.323 105.803C111.207 105.803 111.091 105.803 110.975 105.803ZM118.609 106.578C119.433 108.942 120.197 111.286 120.9 113.598C125.166 127.634 138.364 139.044 152.301 134.46C157.547 132.734 161.615 130.732 164.321 128.628C167.058 126.499 168.054 124.556 168.054 122.937C168.054 121.319 167.058 119.376 164.321 117.247C161.615 115.143 157.547 113.141 152.301 111.416C143.602 108.554 132.039 106.571 119.05 105.984C118.734 105.969 118.505 106.279 118.609 106.578ZM76.0304 114.767C75.1158 112.111 72.3159 110.538 69.6473 111.416C64.4018 113.141 60.3334 115.143 57.6276 117.247C54.8909 119.376 53.8946 121.319 53.8946 122.937C53.8946 124.556 54.8909 126.499 57.6276 128.628C60.3334 130.732 64.4018 132.734 69.6473 134.46C76.2849 136.643 81.6423 129.43 79.06 122.938C78.0859 120.489 77.1495 117.981 76.2578 115.423C76.1815 115.204 76.1057 114.985 76.0304 114.767ZM85.514 60.1488C82.5842 58.0246 80.4163 57.4995 78.8939 57.8174C77.3715 58.1354 75.8393 59.4334 74.6877 62.4101C73.5504 65.3499 72.9522 69.5402 73.002 74.7753C73.0135 75.9875 73.0597 77.2484 73.1405 78.554C74.0463 93.1829 89.04 101.633 103.688 101.052C106.079 100.958 108.51 100.909 110.975 100.909C111.152 100.909 111.274 100.73 111.209 100.564C106.385 88.3724 100.651 77.8138 95.0068 70.1794C91.6476 65.6355 88.4074 62.2468 85.514 60.1488Z" fill="white"/>
</svg>
