<svg width="1000" height="360" viewBox="0 0 1000 360" fill="none" xmlns="http://www.w3.org/2000/svg">
<path fill-rule="evenodd" clip-rule="evenodd" d="M128.326 75.7232C128.326 71.4578 131.785 68 136.05 68H149.933C153.57 68 156.714 70.5366 157.482 74.0906L169.375 129.079C169.545 129.866 170.242 130.429 171.048 130.429C171.994 130.429 172.76 129.662 172.76 128.716V74.4239C172.76 70.8761 175.637 68 179.186 68C182.733 68 185.609 70.8761 185.609 74.4239V124.636C185.609 128.902 182.151 132.36 177.886 132.36H163.03C159.961 132.36 157.308 130.218 156.659 127.219L144.561 71.2813C144.391 70.4933 143.694 69.9308 142.888 69.9308C141.942 69.9308 141.175 70.6975 141.175 71.6433V125.936C141.175 129.483 138.299 132.36 134.75 132.36C131.203 132.36 128.326 129.483 128.326 125.936V75.7232Z" fill="#F34533"/>
<path fill-rule="evenodd" clip-rule="evenodd" d="M210.483 86.0097C213.5 82.9936 218.39 82.9936 221.406 86.0097L231.223 95.826C233.794 98.3973 234.224 102.414 232.254 105.47L201.779 152.761C201.342 153.439 201.437 154.33 202.008 154.9C202.676 155.569 203.761 155.569 204.429 154.9L242.822 116.509C245.331 114.001 249.398 114.001 251.907 116.509C254.416 119.018 254.416 123.085 251.907 125.594L216.4 161.1C213.384 164.115 208.494 164.115 205.477 161.1L194.972 150.596C192.803 148.426 192.44 145.035 194.102 142.456L225.104 94.3481C225.541 93.6703 225.446 92.7796 224.876 92.2096C224.207 91.5408 223.122 91.5408 222.453 92.2096L184.061 130.6C181.553 133.109 177.484 133.109 174.975 130.6C172.466 128.092 172.466 124.024 174.975 121.515L210.483 86.0097Z" fill="#F34533"/>
<path fill-rule="evenodd" clip-rule="evenodd" d="M261.276 151.277C265.542 151.277 269 154.734 269 158.999V172.882C269 176.518 266.463 179.662 262.909 180.431L207.918 192.322C207.13 192.493 206.568 193.19 206.568 193.996C206.568 194.942 207.334 195.708 208.28 195.708H262.576C266.123 195.708 269 198.585 269 202.132C269 205.68 266.123 208.557 262.576 208.557H212.36C208.095 208.557 204.637 205.098 204.637 200.833V185.979C204.637 182.91 206.778 180.256 209.778 179.607L265.718 167.511C266.507 167.34 267.069 166.643 267.069 165.836C267.069 164.89 266.303 164.124 265.356 164.124H211.061C207.513 164.124 204.637 161.248 204.637 157.7C204.637 154.152 207.513 151.277 211.061 151.277H261.276Z" fill="#F34533"/>
<path fill-rule="evenodd" clip-rule="evenodd" d="M251.009 233.493C254.026 236.509 254.026 241.399 251.009 244.415L241.193 254.232C238.621 256.803 234.605 257.232 231.548 255.263L184.255 224.789C183.577 224.352 182.686 224.447 182.116 225.018C181.448 225.686 181.448 226.771 182.116 227.439L220.509 265.83C223.017 268.339 223.017 272.406 220.509 274.915C218 277.423 213.932 277.423 211.423 274.915L175.916 239.409C172.899 236.393 172.899 231.503 175.916 228.487L186.421 217.984C188.59 215.814 191.981 215.451 194.561 217.114L242.67 248.113C243.349 248.55 244.239 248.455 244.809 247.885C245.478 247.215 245.478 246.131 244.809 245.462L206.417 207.072C203.908 204.564 203.908 200.495 206.417 197.987C208.925 195.479 212.994 195.479 215.503 197.987L251.009 233.493Z" fill="#F34533"/>
<path fill-rule="evenodd" clip-rule="evenodd" d="M185.672 284.277C185.672 288.542 182.213 292 177.948 292H164.065C160.428 292 157.284 289.464 156.516 285.91L144.624 230.921C144.453 230.134 143.756 229.571 142.95 229.571C142.004 229.571 141.238 230.338 141.238 231.284V285.577C141.238 289.124 138.361 292 134.812 292C131.265 292 128.389 289.124 128.389 285.577V235.363C128.389 231.098 131.847 227.64 136.112 227.64H150.968C154.037 227.64 156.69 229.782 157.339 232.781L169.437 288.719C169.607 289.507 170.304 290.069 171.111 290.069C172.056 290.069 172.823 289.303 172.823 288.356V234.064C172.823 230.516 175.699 227.64 179.248 227.64C182.795 227.64 185.672 230.516 185.672 234.064V284.277Z" fill="#F34533"/>
<path fill-rule="evenodd" clip-rule="evenodd" d="M103.518 273.997C100.502 277.013 95.6115 277.013 92.5952 273.997L89.3499 270.751L88.9714 270.373L87.0785 268.48L82.7784 264.18C80.2069 261.609 79.7776 257.592 81.7474 254.535L112.222 207.245C112.659 206.567 112.564 205.677 111.994 205.106C111.325 204.437 110.241 204.437 109.572 205.106L71.1793 243.496C68.6705 246.005 64.6029 246.005 62.094 243.496C59.5852 240.988 59.5852 236.921 62.094 234.412L97.6015 198.907C100.618 195.891 105.508 195.891 108.524 198.907L119.028 209.41C121.198 211.58 121.561 214.971 119.898 217.55L88.8972 265.658C88.4604 266.336 88.5556 267.227 89.1257 267.796C89.7945 268.466 90.8789 268.466 91.5476 267.796L129.94 229.406C132.449 226.897 136.517 226.897 139.026 229.406C141.534 231.915 141.534 235.982 139.026 238.491L103.518 273.997Z" fill="#F34533"/>
<path fill-rule="evenodd" clip-rule="evenodd" d="M52.7236 208.557C48.458 208.557 45 205.098 45 200.833V186.951C45 183.315 47.5367 180.17 51.091 179.402L106.082 167.511C106.87 167.34 107.432 166.643 107.432 165.836C107.432 164.89 106.666 164.124 105.719 164.124H51.4243C47.8763 164.124 45 161.248 45 157.7C45 154.152 47.8763 151.277 51.4243 151.277H101.639C105.905 151.277 109.363 154.734 109.363 158.999V173.854C109.363 176.923 107.222 179.576 104.222 180.225L48.2815 192.322C47.4934 192.493 46.9309 193.19 46.9309 193.996C46.9309 194.942 47.6977 195.708 48.6435 195.708H102.939C106.487 195.708 109.363 198.585 109.363 202.132C109.363 205.68 106.487 208.557 102.939 208.557H52.7236Z" fill="#F34533"/>
<path fill-rule="evenodd" clip-rule="evenodd" d="M62.9713 126.551C59.955 123.535 59.955 118.645 62.9713 115.629L72.7881 105.813C75.3595 103.241 79.3763 102.812 82.433 104.782L129.726 135.255C130.404 135.692 131.295 135.597 131.865 135.027C132.534 134.358 132.534 133.273 131.865 132.605L93.4725 94.214C90.9636 91.7053 90.9636 87.638 93.4725 85.1292C95.9813 82.6205 100.049 82.6205 102.557 85.1292L138.065 120.635C141.081 123.651 141.081 128.541 138.065 131.557L134.82 134.802L134.442 135.181L127.56 142.061C125.39 144.23 122 144.593 119.421 142.931L71.3101 111.931C70.6322 111.494 69.7416 111.589 69.1715 112.16C68.5027 112.828 68.5027 113.913 69.1715 114.581L107.564 152.972C110.073 155.481 110.073 159.549 107.564 162.057C105.055 164.565 100.988 164.565 98.4787 162.057L62.9713 126.551Z" fill="#F34533"/>
<path d="M551.105 249.988C510.533 249.988 479.728 218.714 479.728 180.243C479.728 141.523 510.533 110.498 551.105 110.498C591.427 110.498 622.733 141.523 622.733 180.243C622.733 218.714 591.928 249.988 551.105 249.988ZM551.355 217.473C571.892 217.473 588.422 200.844 588.422 179.995C588.422 159.146 571.892 142.516 551.355 142.516C530.568 142.516 514.289 159.146 514.289 179.995C514.289 200.844 530.568 217.473 551.355 217.473Z" fill="black"/>
<path d="M637.882 247.262V113.232H673.195V247.262H637.882Z" fill="black"/>
<path d="M746.587 249.989C714.529 249.989 694.243 238.075 683.474 216.729L716.784 203.823C722.794 215.737 733.563 221.942 747.839 221.942C761.864 221.942 769.377 215.24 769.377 207.298C769.377 197.618 754.851 195.384 737.571 191.909C714.78 187.193 689.485 180.244 689.485 151.948C689.485 129.362 711.524 109.754 744.834 110.002C773.384 110.002 790.415 120.675 802.937 138.545L771.381 151.204C765.871 142.268 757.356 137.056 744.834 137.056C731.309 137.056 724.798 142.517 724.798 149.963C724.798 158.402 735.817 160.635 755.603 164.855C778.143 169.323 804.69 177.017 804.69 205.808C804.69 226.658 785.907 250.237 746.587 249.989Z" fill="black"/>
<path d="M885.798 249.988C842.222 249.988 814.172 219.459 814.172 180.491C814.172 141.523 844.727 110.498 885.046 110.498C925.619 110.498 954.921 139.538 954.921 179.25V192.157H847.482C851.99 209.531 866.263 220.452 886.298 220.452C902.327 220.452 913.096 213.502 919.858 202.581L948.159 218.963C934.635 237.826 915.601 249.988 885.798 249.988ZM885.046 139.538C867.515 139.538 853.993 149.714 848.484 165.351H920.61C916.102 148.721 903.078 139.538 885.046 139.538Z" fill="black"/>
<path d="M338.964 249.216H371.522V111.877H338.964V249.216Z" fill="black"/>
<path d="M432.53 249.216H465.088V111.877H432.53V249.216Z" fill="black"/>
<path d="M436.297 249.265H406.661L368.129 111.926H397.06L436.297 249.265Z" fill="black"/>
</svg>
